inDegrees=yes
name=teste_pendulo.mot
DataType=double
version=3
OpenSimVersion=4.4-2022-07-23-0e9fedc
endheader
time	q1	q2
7.279584169387817	21.13845244770797	-62.04546595022476
7.283546924591064	20.17863752116512	-61.08564263014177
7.294548988342285	19.53521308212763	-60.44221849394902
7.303550958633423	19.53521038523951	-60.12373368684899
7.310551166534424	18.91595248029309	-59.50447128167225
7.315554141998291	18.91595248029309	-59.50447128167225
7.320549964904785	18.26429507928225	-58.83987127556357
7.329548120498657	18.26429183844559	-58.45652058054663
7.334553003311157	17.49499246235643	-57.68721570321704
7.338552236557007	17.49499051932397	-57.45255188077863
7.343549013137817	16.66106691122386	-56.61862465700113
7.34854793548584	16.66106367059826	-56.22904246781913
7.354551076889038	16.66106317695051	-55.7858578656149
7.360549926757812	16.66106338897736	-55.3710264834567
7.364541053771973	15.63296982216847	-54.34292649957418
7.369550943374634	15.63296601432988	-53.8721199140752
7.376546859741211	15.6329646658207	-53.25137336183837
7.38555097579956	15.63296574167873	-52.76418252696499
7.39057993888855	14.62455767422515	-51.75576684678649
7.395556926727295	14.62455053277746	-50.9386659893042
7.399549961090088	13.42535751764271	-49.73946043706266
7.404554128646851	13.42535256577871	-49.13428773312631
7.408543109893799	12.88161111375886	-48.59053735367847
7.415548086166382	12.88160706648276	-48.16336025560106
7.419549942016602	12.35958753054557	-47.64133425519813
7.423552989959717	12.3595828354189	-47.14732444199263
7.428550958633423	11.83523949222749	-46.62297364059268
7.433550834655762	11.83523811250538	-46.48340472181199
7.437541961669922	11.23087936689138	-45.87904363683425
7.442569017410278	11.23087663697475	-45.59524421384351
7.447547912597656	10.56665135148751	-44.93101439420769
7.452548980712891	10.56664734269117	-44.50976709742528
7.458569049835205	8.911226303945378	-42.85433744024239
7.464550018310547	8.911225242277604	-42.53550796841311
7.46854305267334	7.619652856368425	-41.24392954519491
7.47356390953064	7.619651282947125	-40.99403462984367
7.479569911956787	6.995613683703817	-40.36999297587868
7.483549118041992	6.995610084496838	-39.99865964925619
7.490549087524414	6.487715430691432	-39.49075920315961
7.497580051422119	6.487712543505475	-39.19833767306634
7.503549098968506	6.041637977673403	-38.7522585103782
7.509553909301758	6.041635358400714	-38.48963272386261
7.513548135757446	5.485573438319653	-37.9335665821176
7.51854395866394	5.485570672222003	-37.65397546758366
7.522543907165527	5.100273541497866	-37.26867393707879
7.52754807472229	5.100269437084546	-36.85263620186174
7.532541990280151	4.677568867668346	-36.42992917826565
7.538540124893188	4.677560504762821	-35.56231165470442
7.546542882919312	4.223500973959152	-35.10823919885345
7.551542043685913	4.223495957661003	-34.600283580933
7.556536912918091	3.688846751620863	-34.06562644988176
7.561548233032227	3.688843167091397	-33.70775873640176
7.566565036773682	3.688843486144213	-33.38365191662432
7.571544885635376	3.054004202171174	-32.74880732951363
7.579540967941284	2.334107021262292	-32.02891007806939
7.587545871734619	2.334102938551775	-31.61537522728683
7.592541933059692	1.216929583890729	-30.49819457955276
7.599542140960693	1.216927978906243	-30.29051760961535
7.608548879623413	1.216927974377005	-30.08255052202275
7.615543127059937	1.216925842055708	-29.65944997738386
7.620548009872437	0.6260589901371315	-29.06857629190637
7.624538898468018	0.6260546888162931	-28.64286549051166
7.629560232162476	0.326778363987428	-28.34358242182362
7.633543014526367	0.3267732762028538	-27.84173941138702
7.639565229415893	0.04874465465195293	-27.56370289922641
7.643561124801636	0.04873844918781294	-26.94813431780164
7.648543119430542	-0.1310079633794659	-26.76837833732503
7.652544021606445	-0.1310131560890601	-26.25836043699497
7.656545162200928	-0.2936474751309903	-26.09571808071336
7.662544965744018	-0.2936588989987434	-24.95994619546741
7.667563199996948	-0.4446899497567058	-24.80889792812384
7.674543857574463	-0.4446935616205483	-24.46421315132356
7.678542852401733	-0.5825567692821944	-24.32634434546738
7.685544013977051	-0.582561695431711	-23.85345194051772
7.692553043365479	-0.8928090245140647	-23.54319693316367
7.69654107093811	-0.8928118174225574	-23.28225192665767
7.703543186187744	-0.8760715450203146	-23.28224978401258
7.710567951202393	-0.8588399857159362	-23.10511584243967
7.716545104980469	-0.737600453055816	-23.22635424695635
7.720543146133423	-0.7376032905208201	-22.95323344775198
7.72454309463501	-0.584345888629208	-23.10648642615047
7.728543043136597	-0.5843493914517721	-22.76849933043101
7.733541965484619	-0.4369226894883178	-22.91592056415016
7.739541053771973	-0.4369314860395963	-22.05451140807725
7.744546890258789	-0.3104098344301131	-22.18101954518836
7.749546051025391	-0.3104214097638064	-21.0484577494899
7.753541946411133	-0.2174567869919342	-21.14140484391617
7.758543968200684	-0.2174685250315485	-19.99843842308588
7.762541055679321	-0.2309810341039773	-19.99842951651317
7.767542123794556	-0.2447886243795615	-19.59619013525696
7.77154016494751	-0.3751988443309696	-19.46577324954727
7.777539253234863	-0.3752025982900248	-19.11624719628631
7.781538248062134	-0.4055413855234243	-19.10611516843728
7.786540031433105	-0.4259320855187599	-18.57809429406993
7.790534019470215	-0.4259320855187599	-18.57809429406993
7.797561883926392	-0.4068293814322521	-17.63625968263977
7.801542043685913	-0.4254046531304154	-17.63625238657675
7.806544065475464	-0.4442516204327009	-16.92798666814463
7.810538053512573	-0.575621387489303	-16.79660531919561
7.816535234451294	-0.5756304480733947	-15.94053078994807
7.823534965515137	-0.5756280676502195	-15.31965013546401
7.8285231590271	-0.6059795341493147	-15.30952418153276
7.838540077209473	-0.6059795341493147	-15.30952418153276
7.84853196144104	-0.6059795341493147	-15.30952418153276
7.854541063308716	-0.6325943959537564	-14.55512694548821
7.860529899597168	-0.6019955590130989	-14.56531605728952
7.867536067962646	-0.4745800650125216	-14.71312901804782
7.873538017272949	-0.4745893903895475	-13.83660121495584
7.877538919448853	-0.3992770210405948	-13.91189926824797
7.881531953811646	-0.3992830060778442	-13.35828101810372
7.885538101196289	-0.3992830060778442	-13.35828101810372
7.892558813095093	-0.3831283555908166	-13.16329830151205
7.898540019989014	-0.3417184219830992	-13.10306240402498
7.904538869857788	-0.3831280042004951	-12.88128864055925
7.910536050796509	-0.4388312130055043	-12.82558336427143
7.914538145065308	-0.4388333428454749	-12.63601244943953
7.918538093566895	-0.4388333428454749	-12.63601244943953
7.923537015914917	-0.4387290372954457	-12.07119483316289
7.928537845611572	-0.2619630545060963	-12.24795128721625
7.932536125183105	-0.2619794807526413	-10.7025650012419
7.93753719329834	-0.2619685687659022	-10.19767685311754
7.942537069320679	-0.2619648586974924	-10.03421785797496
7.947533845901489	-0.05114694969473442	-10.24503295239616
7.956536054611206	-0.05114985109574359	-9.981976916088573
7.962531805038452	-0.05114919620737796	-9.778535618070574
7.971534967422485	-0.05114964240347044	-9.534984273029046
7.97653603553772	-0.05115052889104794	-9.21108920045816
7.981538057327271	0.1876047700289714	-9.449838924478893
7.985528945922852	0.1876013188682543	-9.13753390834701
7.991559982299805	0.1876023900843053	-8.922599560412058
7.995556831359863	0.4133141830550518	-9.148307632012672
8.000539064407349	0.4133119916623312	-8.950646251626146
8.005531072616577	0.6287256254756421	-9.166056457246762
8.015558004379272	0.6693792054668368	-9.125402894722997
8.021528959274292	0.8506555322598726	-9.28544180917793
8.025529861450195	0.87372443253503	-9.262372959189724
8.029527187347412	1.480717821125305	-9.857314718048777
8.034531831741333	1.480717821125305	-9.857314718048777
8.039561986923218	1.780703760933372	-10.14816013807248
8.047546863555908	2.14383533806459	-10.51129171001894
8.052547931671143	2.143832329890787	-10.24245321016293
8.0575270652771	2.143833801911086	-10.10542555225831
8.063534021377563	2.819464899113403	-10.78105447599632
